<svg width="16" height="16" viewBox="0 0 16 16" fill="none" xmlns="http://www.w3.org/2000/svg">
<path d="M4.44505 5.09148C4.3738 5.85148 4.3238 7.19648 4.77255 7.76898C4.77255 7.76898 4.5613 6.29148 6.45505 4.43773C7.21755 3.69148 7.3938 2.67648 7.12755 1.91523C6.9763 1.48398 6.70005 1.12773 6.46005 0.878982C6.32005 0.732732 6.42755 0.491482 6.6313 0.500232C7.8638 0.555232 9.8613 0.897731 10.71 3.02773C11.0825 3.96273 11.11 4.92898 10.9325 5.91148C10.82 6.53898 10.42 7.93398 11.3325 8.10523C11.9838 8.22773 12.2988 7.71023 12.44 7.33773C12.4988 7.18273 12.7025 7.14398 12.8125 7.26773C13.9125 8.51898 14.0063 9.99273 13.7788 11.2615C13.3388 13.714 10.855 15.499 8.38755 15.499C5.30505 15.499 2.8513 13.7352 2.21505 10.5427C1.9588 9.25398 2.0888 6.70398 4.0763 4.90398C4.2238 4.76898 4.46505 4.88898 4.44505 5.09148Z" fill="url(#paint0_radial_56_13)"/>
<path d="M9.51384 9.67764C8.37759 8.21514 8.88634 6.54639 9.16509 5.88139C9.20259 5.79389 9.10259 5.71139 9.02384 5.76514C8.53509 6.09764 7.53384 6.88014 7.06759 7.98139C6.43634 9.47014 6.48134 10.1989 6.85509 11.0889C7.08009 11.6251 6.81884 11.7389 6.68759 11.7589C6.56009 11.7789 6.44259 11.6939 6.34884 11.6051C6.07919 11.3462 5.887 11.0172 5.79384 10.6551C5.77384 10.5776 5.67259 10.5564 5.62634 10.6201C5.27634 11.1039 5.09509 11.8801 5.08634 12.4289C5.05884 14.1251 6.46009 15.5001 8.15509 15.5001C10.2913 15.5001 11.8476 13.1376 10.6201 11.1626C10.2638 10.5876 9.92884 10.2114 9.51384 9.67764Z" fill="url(#paint1_radial_56_13)"/>
<defs>
<radialGradient id="paint0_radial_56_13" cx="0" cy="0" r="1" gradientTransform="matrix(-8.82338 -0.0382934 -0.0629107 14.4774 7.77702 15.5378)" gradientUnits="userSpaceOnUse">
<stop offset="0.314" stop-color="#DCDCDC"/>
<stop offset="0.662" stop-color="#D6D6D6"/>
<stop offset="0.863458" stop-color="#AAAAAA"/>
<stop offset="0.883962" stop-color="#ACA3A3"/>
<stop offset="0.97222" stop-color="#A4A4A4"/>
</radialGradient>
<radialGradient id="paint1_radial_56_13" cx="0" cy="0" r="1" gradientTransform="matrix(-0.0932482 9.23158 6.94746 0.070167 8.27258 6.75743)" gradientUnits="userSpaceOnUse">
<stop offset="0.328" stop-color="#F0F0F0"/>
<stop offset="0.4869" stop-color="white"/>
<stop offset="0.822" stop-color="white"/>
<stop offset="0.863" stop-color="white"/>
<stop offset="0.91" stop-color="white"/>
<stop offset="0.941" stop-color="white"/>
<stop offset="1" stop-color="white"/>
<stop offset="1" stop-color="white"/>
<stop offset="1" stop-color="#F5F3E3"/>
<stop offset="1" stop-color="#D2D0BE"/>
</radialGradient>
</defs>
</svg>
